<?xml version='1.0' encoding='utf-8'?>
<svg xmlns="http://www.w3.org/2000/svg" width="1920" height="1080" viewBox="0 0 1920 1080" data-theme="light">
  <style>
        @font-face {
            font-family: 'Inter';
            src: url('assets/fonts/Inter-Regular.ttf') format('truetype');
            font-weight: 400;
            font-style: normal;
            font-display: swap;
        }
        @font-face {
            font-family: 'Inter';
            src: url('assets/fonts/Inter-Bold.ttf') format('truetype');
            font-weight: 600;
            font-style: normal;
            font-display: swap;
        }
        @font-face {
            font-family: 'Inter';
            src: url('assets/fonts/Inter-Bold.ttf') format('truetype');
            font-weight: 800;
            font-style: normal;
            font-display: swap;
        }
        
:root {
    --background: #f8fafc;
    --panel: #ffffff;
    --primary-text: #0f172a;
    --muted-text: #64748b;
    --inverse-text: #ffffff;
    --border: #e2e8f0;
    --shadow-color: #000000;
    --icon-pad-bg: #1e293b;
    --art-glow: #0891b2;
    --art-glow-opacity: 0.10;
    --art-sheen: #ffffff;
    --art-sheen-opacity: 0.34;
    --art-shadow: #0f172a;
    --art-shadow-opacity: 0.14;
    --art-muted-line: #94a3b8;
    --art-panel-tint: #f1f5f9;
    --font-family: 'Inter', 'Segoe UI', 'Kalam', Roboto, Helvetica, Arial, sans-serif;
    --radius-xl: 16px;
    --font-family-headline: 'Inter', 'Segoe UI', 'Kalam', Roboto, Helvetica, Arial, sans-serif;
    --font-family-body: 'Inter', 'Segoe UI', 'Kalam', Roboto, Helvetica, Arial, sans-serif;
    --font-heading: 'Inter', 'Segoe UI', 'Kalam', Roboto, Helvetica, Arial, sans-serif;
    --font-body: 'Inter', 'Segoe UI', 'Kalam', Roboto, Helvetica, Arial, sans-serif;
    --font-size-h1: 56px;
    --font-size-h2: 40px;
    --font-size-h3: 28px;
    --font-size-body: 24px;
    --font-size-caption: 18px;
    --secondary-text: var(--muted-text);
    --panel-border: var(--border);
    --font-weight-normal: 400;
    --font-weight-medium: 500;
    --font-weight-semibold: 600;
    --font-weight-bold: 700;
    --spacing-gutter-pct: 0.07;
    --spacing-top-pct: 0.15;
    --spacing-bottom-pct: 0.07;
    --spacing-title-y-pct: 0.055;
    --accent-1: #2563eb;
    --accent-2: #16a34a;
    --accent-3: #ea580c;
    --accent-4: #7c3aed;
    --accent-5: #0284c7;
    --accent-6: #475569;
}
:root[data-theme="dark"] {
    --background: #0f172a;
    --panel: #1e293b;
    --primary-text: #f1f5f9;
    --muted-text: #94a3b8;
    --inverse-text: #0f172a;
    --border: #334155;
    --shadow-color: #000000;
    --icon-pad-bg: #1e293b;
    --art-glow: #7dd3fc;
    --art-glow-opacity: 0.18;
    --art-sheen: #ffffff;
    --art-sheen-opacity: 0.18;
    --art-shadow: #000000;
    --art-shadow-opacity: 0.28;
    --art-muted-line: #64748b;
    --art-panel-tint: #1e293b;
    --accent-1: #60a5fa;
    --accent-2: #4ade80;
    --accent-3: #f97316;
    --accent-4: #a78bfa;
    --accent-5: #38bdf8;
    --accent-6: #94a3b8;
}
:root[data-theme="light"] {
    --background: #f8fafc;
    --panel: #ffffff;
    --primary-text: #0f172a;
    --muted-text: #64748b;
    --inverse-text: #ffffff;
    --border: #e2e8f0;
    --shadow-color: #000000;
    --icon-pad-bg: #1e293b;
    --art-glow: #0891b2;
    --art-glow-opacity: 0.10;
    --art-sheen: #ffffff;
    --art-sheen-opacity: 0.34;
    --art-shadow: #0f172a;
    --art-shadow-opacity: 0.14;
    --art-muted-line: #94a3b8;
    --art-panel-tint: #f1f5f9;
    --accent-1: #2563eb;
    --accent-2: #16a34a;
    --accent-3: #ea580c;
    --accent-4: #7c3aed;
    --accent-5: #0284c7;
    --accent-6: #475569;
}</style>
  <rect x="0" y="0" width="1.92E+3" height="1.08E+3" fill="#252a34" stroke="none" id="programmatic_background"/>
  <line id="HEADER_DECOR" x1="960.0" x2="1080.0" y1="135.0" y2="135.0" stroke="var(--accent-1)" stroke-width="6" stroke-linecap="round"/>
  <defs>
    <pattern id="svgf5ac6e73-napkin-hatch" patternUnits="userSpaceOnUse" width="12" height="12">
      <path d="M -3 12 L 12 -3 M 0 15 L 15 0" fill="none" stroke="var(--primary-text)" stroke-width="1" stroke-opacity="0.05"/>
    </pattern>
    <filter id="svgf5ac6e73-shadow" x="-30%" y="-30%" width="160%" height="160%">
      <feDropShadow dx="0" dy="2" stdDeviation="3" flood-color="#000000" flood-opacity="0.08"/>
      <feDropShadow dx="0" dy="6" stdDeviation="10" flood-color="#000000" flood-opacity="0.12"/>
    </filter>
    <marker id="svgf5ac6e73-arrowhead" markerWidth="10" markerHeight="10" refX="9" refY="5" orient="auto">
      <path d="M 0 0 L 10 5 L 0 10 Z" fill="var(--accent-1)"/>
    </marker>
    <filter id="svgf5ac6e73-text-glow" x="-20%" y="-20%" width="140%" height="140%">
      <feDropShadow dx="0" dy="0" stdDeviation="2" flood-color="#000000" flood-opacity="0.4"/>
    </filter>
    <radialGradient id="svgf5ac6e73-universal-edge-vignette" cx="50%" cy="50%" r="72%">
      <stop offset="0%" stop-color="var(--background)" stop-opacity="0"/>
      <stop offset="72%" stop-color="var(--background)" stop-opacity="0.12"/>
      <stop offset="100%" stop-color="var(--primary-text)" stop-opacity="0.08"/>
    </radialGradient>
    <linearGradient id="svgf5ac6e73-universal-surface-sheen" x1="0%" y1="0%" x2="100%" y2="100%">
      <stop offset="0%" stop-color="var(--art-sheen)" stop-opacity="var(--art-sheen-opacity)"/>
      <stop offset="46%" stop-color="var(--art-sheen)" stop-opacity="0.035"/>
      <stop offset="100%" stop-color="var(--art-panel-tint)" stop-opacity="0.14"/>
    </linearGradient>
    <radialGradient id="svgf5ac6e73-universal-icon-aura" cx="50%" cy="42%" r="64%">
      <stop offset="0%" stop-color="var(--art-glow)" stop-opacity="var(--art-glow-opacity)"/>
      <stop offset="100%" stop-color="var(--background)" stop-opacity="0"/>
    </radialGradient>
    <linearGradient id="svgf5ac6e73-myth-card-sheen" x1="0%" y1="0%" x2="100%" y2="100%">
      <stop offset="0%" stop-color="var(--inverse-text)" stop-opacity="0.18"/>
      <stop offset="56%" stop-color="var(--inverse-text)" stop-opacity="0.03"/>
      <stop offset="100%" stop-color="var(--background)" stop-opacity="0.12"/>
    </linearGradient>
  </defs>
  <rect width="100%" height="100%" fill="var(--background)" id="CANVAS_BG"/>
  <rect width="100%" height="100%" fill="url(#svgf5ac6e73-napkin-hatch)"/>
  <rect id="UNIVERSAL_EDGE_VIGNETTE" width="100%" height="100%" fill="url(#svgf5ac6e73-universal-edge-vignette)" opacity="0.62"/>
  <text id="TITLE" x="960.0" y="59" text-anchor="middle" font-weight="800" font-size="56" fill="#0f172a" style="font-size: 60px; font-family: Inter, Segoe UI, Kalam, Roboto, Helvetica, Arial, sans-serif; font-weight: 700; letter-spacing:-1.2px;" data-final-font-size="60">
    <tspan x="960.0" dy="68.00px">Lessons in Budget Transparency</tspan>
  </text>
  <rect id="TITLE_FRAME" x="134" y="59" width="1652" height="103" fill="none"/>
  <g transform="translate(0, 190) scale(1.0)">
    <path d="M 920 -8 C 950 80 950 720 920 808" stroke="var(--primary-text)" stroke-width="2" stroke-opacity="0.10" fill="none"/>
    <path d="M 1000 -8 C 970 80 970 720 1000 808" stroke="var(--primary-text)" stroke-width="2" stroke-opacity="0.10" fill="none"/>
    <text x="480.0" y="0" text-anchor="middle" font-weight="900" font-size="52" fill="var(--accent-1)">MYTHS</text>
    <text x="1440.0" y="0" text-anchor="middle" font-weight="900" font-size="52" fill="var(--accent-2)">REALITY</text>
    <!-- Row 1 - cards at y=130 -->
    <g transform="translate(480.0, 130.0)">
      <rect id="ITEM_1_ACCENT_BG" x="-400" y="-110" width="800" height="245" rx="24" fill="var(--accent-6)" fill-opacity="1.0"/>
      <rect id="ITEM_1_BG" x="-400" y="-110" width="800" height="245" rx="18" fill="var(--panel)" stroke="var(--accent-1)" filter="url(#svgf5ac6e73-shadow)" stroke-width="3"/>
      <rect x="-388" y="-98" width="776" height="221" rx="16" fill="url(#svgf5ac6e73-myth-card-sheen)" opacity="0.92"/>
      <circle id="ITEM_1_PAD" cx="-330" cy="-40" r="46" fill="var(--icon-pad-bg)" stroke="var(--background)" stroke-width="2" stroke-opacity="0.65" opacity="0.94" fill-opacity="0.9"/>
      <circle id="ITEM_1_PAD_INNER" cx="-330" cy="-40" r="35.88" fill="var(--accent-6)" fill-opacity="0.22"/>
      <circle cx="-330" cy="-40" r="34" fill="none" stroke="var(--accent-1)" stroke-width="3" stroke-dasharray="6 4"/>
      <g id="ITEM_1_ICON" transform="translate(-358, -68)" data-icon-size="56" stroke-dasharray="6 4">
        <g transform="translate(-10.920677966101698,-10.920677966101696) scale(3.243389830508475)" vector-effect="non-scaling-stroke" stroke-width="2.38" stroke-linecap="round" stroke-linejoin="round" stroke-opacity="1.0">
          <path d="M10 10h4" vector-effect="non-scaling-stroke" fill="none" stroke="#f1f5f9"/>
          <path d="M19 7V4a1 1 0 0 0-1-1h-2a1 1 0 0 0-1 1v3" vector-effect="non-scaling-stroke" fill="none" stroke="#f1f5f9"/>
          <path d="M20 21a2 2 0 0 0 2-2v-3.851c0-1.39-2-2.962-2-4.829V8a1 1 0 0 0-1-1h-4a1 1 0 0 0-1 1v11a2 2 0 0 0 2 2z" vector-effect="non-scaling-stroke" fill="none" stroke="#f1f5f9"/>
          <path d="M 22 16 L 2 16" vector-effect="non-scaling-stroke" fill="none" stroke="#f1f5f9"/>
          <path d="M4 21a2 2 0 0 1-2-2v-3.851c0-1.39 2-2.962 2-4.829V8a1 1 0 0 1 1-1h4a1 1 0 0 1 1 1v11a2 2 0 0 1-2 2z" vector-effect="non-scaling-stroke" fill="none" stroke="#f1f5f9"/>
          <path d="M9 7V4a1 1 0 0 0-1-1H6a1 1 0 0 0-1 1v3" vector-effect="non-scaling-stroke" fill="none" stroke="#f1f5f9"/>
        </g>
      </g>
      <text id="ITEM_1_HEAD" x="52.0" y="-85.0" text-anchor="middle" font-weight="bold" font-size="28" fill="var(--accent-6)" data-bg-id="ITEM_1_BG" fill-opacity="1.0" style="font-size: 30px; font-family: Inter, Segoe UI, Kalam, Roboto, Helvetica, Arial, sans-serif; font-weight: 700; letter-spacing:-0.4px;" data-final-font-size="30">
        <tspan x="52.0" dy="37.75px">Visibility Gap</tspan>
      </text>
      <rect id="ITEM_1_HEAD_FRAME" x="-220" y="-85" width="544" height="50" fill="none"/>
      <text id="ITEM_1_BODY" x="52.0" y="-14.0" text-anchor="middle" font-size="22" fill="var(--primary-text)" opacity="0.88" data-bg-id="ITEM_1_BG" data-max-lines="5" style="font-size: 26px; font-family: Inter, Segoe UI, Kalam, Roboto, Helvetica, Arial, sans-serif; font-weight: 400;" data-final-font-size="26">
        <tspan x="52.0" dy="38.10px">Public visibility does not equal congressional</tspan>
        <tspan x="52.0" dy="29.90px">oversight access</tspan>
      </text>
      <rect id="ITEM_1_BODY_FRAME" x="-220" y="-14" width="544" height="124" fill="none"/>
    </g>
    <g transform="translate(1440.0, 130.0)">
      <rect id="ITEM_2_ACCENT_BG" x="-400" y="-110" width="800" height="245" rx="24" fill="var(--accent-2)" fill-opacity="1.0"/>
      <rect id="ITEM_2_BG" x="-400" y="-110" width="800" height="245" rx="18" fill="var(--panel)" stroke="var(--accent-2)" filter="url(#svgf5ac6e73-shadow)" stroke-width="3"/>
      <rect x="-388" y="-98" width="776" height="221" rx="16" fill="url(#svgf5ac6e73-myth-card-sheen)" opacity="0.92"/>
      <circle id="ITEM_2_PAD" cx="330" cy="-40" r="46" fill="var(--icon-pad-bg)" stroke="var(--background)" stroke-width="2" stroke-opacity="0.65" opacity="0.94" fill-opacity="0.9"/>
      <circle id="ITEM_2_PAD_INNER" cx="330" cy="-40" r="35.88" fill="var(--accent-2)" fill-opacity="0.22"/>
      <circle cx="330" cy="-40" r="34" fill="none" stroke="var(--accent-2)" stroke-width="3" stroke-dasharray="6 4"/>
      <g id="ITEM_2_ICON" transform="translate(302, -68)" data-icon-size="56" stroke-dasharray="6 4">
        <g transform="translate(-13.751272727272731,-13.751272727272731) scale(2.6094545454545455)">
          <path d="M24.4853 3.27211C25.6569 2.10054 27.5564 2.10054 28.7279 3.27211C29.8995 4.44368 29.8995 6.34318 28.7279 7.51475L10.6967 25.546C10.5323 25.7104 10.2818 25.7364 10.0903 25.6239C10.018 25.5815 9.94749 25.5336 9.86715 25.51L7.1556 24.7138L6.48825 22.1422C6.46587 22.0559 6.4157 21.98 6.37191 21.9024C6.26436 21.7118 6.29174 21.4657 6.45406 21.3033L24.4853 3.27211Z" fill="#0074BA"/>
          <path d="M23.4265 3.62749C23.817 3.23696 24.4501 3.23696 24.8407 3.62749L29.435 8.22185C29.8256 8.61237 29.8256 9.24554 29.435 9.63606L24.4853 14.5858C24.0948 14.9763 23.4616 14.9763 23.0711 14.5858C22.6805 14.1953 22.6805 13.5621 23.0711 13.1716L27.3137 8.92896L23.4265 5.0417C23.0359 4.65118 23.0359 4.01801 23.4265 3.62749Z" fill="#D3D3D3"/>
          <path d="M13.8805 13.1734C14.0758 12.9781 14.3924 12.9781 14.5876 13.1734L18.8303 17.416C19.0255 17.6113 19.0255 17.9279 18.8303 18.1231L18.1232 18.8302C17.9279 19.0255 17.6113 19.0255 17.4161 18.8302L13.1734 14.5876C12.9782 14.3923 12.9782 14.0757 13.1734 13.8805L13.8805 13.1734Z" fill="#D3D3D3"/>
          <path d="M6.45405 22.0104L9.98958 25.5459L7.98546 27.55C7.6754 27.8601 7.30113 28.0984 6.88902 28.2482L2.80229 29.7337C2.65021 29.789 2.47987 29.7512 2.36544 29.6368C2.25108 29.5224 2.21325 29.3522 2.26841 29.2002L3.75179 25.1119C3.90156 24.6992 4.1401 24.3243 4.45057 24.0139L6.45405 22.0104Z" fill="#D3D3D3"/>
          <path d="M6.8076 26.6065C6.41708 26.997 5.78391 26.997 5.39339 26.6065C5.00286 26.216 5.00286 25.5828 5.39339 25.1923C5.78391 24.8018 6.41708 24.8018 6.8076 25.1923C7.19813 25.5828 7.19813 26.216 6.8076 26.6065Z" fill="#636363"/>
        </g>
      </g>
      <text id="ITEM_2_HEAD" x="-52.0" y="-85.0" text-anchor="middle" font-weight="bold" font-size="28" fill="var(--primary-text)" data-bg-id="ITEM_2_BG" fill-opacity="1.0" style="font-size: 30px; font-family: Inter, Segoe UI, Kalam, Roboto, Helvetica, Arial, sans-serif; font-weight: 700; letter-spacing:-0.4px;" data-final-font-size="30">
        <tspan x="-52.0" dy="37.75px">Guidance Impact</tspan>
      </text>
      <rect id="ITEM_2_HEAD_FRAME" x="-324" y="-85" width="544" height="50" fill="none"/>
      <text id="ITEM_2_BODY" x="-52.0" y="-14.0" text-anchor="middle" font-size="22" fill="var(--primary-text)" opacity="0.88" data-bg-id="ITEM_2_BG" data-max-lines="5" style="font-size: 26px; font-family: Inter, Segoe UI, Kalam, Roboto, Helvetica, Arial, sans-serif; font-weight: 400;" data-final-font-size="26">
        <tspan x="-52.0" dy="38.10px">Reporting rules shape the narrative</tspan>
        <tspan x="-52.0" dy="29.90px">of defense spending</tspan>
      </text>
      <rect id="ITEM_2_BODY_FRAME" x="-324" y="-14" width="544" height="124" fill="none"/>
    </g>
    <!-- Row 2 - cards at y=400 -->
    <g transform="translate(480.0, 400.0)">
      <rect id="ITEM_3_ACCENT_BG" x="-400" y="-110" width="800" height="245" rx="24" fill="var(--accent-3)" fill-opacity="0.15"/>
      <rect id="ITEM_3_BG" x="-400" y="-110" width="800" height="245" rx="18" fill="var(--panel)" stroke="var(--accent-3)" filter="url(#svgf5ac6e73-shadow)" stroke-width="3"/>
      <rect x="-388" y="-98" width="776" height="221" rx="16" fill="url(#svgf5ac6e73-myth-card-sheen)" opacity="0.92"/>
      <circle id="ITEM_3_PAD" cx="-330" cy="-40" r="46" fill="var(--icon-pad-bg)" stroke="var(--background)" stroke-width="2" stroke-opacity="0.65" opacity="0.94"/>
      <circle id="ITEM_3_PAD_INNER" cx="-330" cy="-40" r="35.88" fill="var(--accent-3)" fill-opacity="0.22"/>
      <circle cx="-330" cy="-40" r="34" fill="none" stroke="var(--accent-3)" stroke-width="3" stroke-dasharray="6 4"/>
      <g id="ITEM_3_ICON" transform="translate(-358, -68)" data-icon-size="56" stroke-dasharray="6 4">
        <g transform="translate(-12.685357142857146,-13.005714285714289) scale(2.562857142857143)">
          <path fill-rule="evenodd" clip-rule="evenodd" d="M17.44 3.385C17.77 3.765 18.33 3.835 18.74 3.545C19.54 2.975 20.58 3.835 20.17 4.715L17.75 7.485H13.88L11.44 4.685C11.03 3.795 12.07 2.935 12.87 3.505L12.94 3.555C13.35 3.845 13.91 3.765 14.23 3.385L15.1 2.345C15.48 1.885 16.19 1.885 16.57 2.345L17.44 3.385ZM4 21.2249C4 14.6849 9.3 9.38489 15.84 9.38489C22.38 9.38489 27.68 14.6849 27.67 21.2249C27.67 26.0549 23.75 29.9749 18.92 29.9749H12.75C7.92 29.9749 4 26.0549 4 21.2249Z" fill="#F3C07B"/>
          <path fill-rule="evenodd" clip-rule="evenodd" d="M14.12 7.46484H17.56C18.17 7.46484 18.67 7.96484 18.67 8.57484C18.67 9.18484 18.17 9.68484 17.56 9.68484H14.12C13.51 9.68484 13.01 9.18484 13.01 8.57484C13.01 7.96484 13.51 7.46484 14.12 7.46484ZM15.8401 19.3449H15.9101C17.4101 19.3849 18.6101 20.6049 18.6101 22.1049C18.6101 23.3849 17.7401 24.4549 16.5601 24.7749V25.8949C16.5601 26.2949 16.2401 26.6149 15.8401 26.6149C15.4401 26.6149 15.1201 26.2949 15.1201 25.8949V24.7749C13.9401 24.4549 13.0701 23.3849 13.0701 22.1049C13.0701 21.7049 13.3901 21.3849 13.7901 21.3849C14.1901 21.3849 14.5101 21.7049 14.5101 22.1049C14.5101 22.8449 15.1001 23.4349 15.8301 23.4349C16.5601 23.4349 17.1601 22.8349 17.1601 22.1049C17.1601 21.3749 16.5601 20.7749 15.8301 20.7749H15.7601C14.2701 20.7349 13.0701 19.5149 13.0701 18.0149C13.0701 16.7349 13.9401 15.6649 15.1201 15.3449V14.2249C15.1201 13.8249 15.4401 13.5049 15.8401 13.5049C16.2401 13.5049 16.5601 13.8249 16.5601 14.2249V15.3449C17.7401 15.6649 18.6101 16.7349 18.6101 18.0149C18.6101 18.4149 18.2901 18.7349 17.8901 18.7349C17.4901 18.7349 17.1701 18.4149 17.1701 18.0149C17.1701 17.2849 16.5701 16.6849 15.8401 16.6849C15.1101 16.6849 14.5101 17.2849 14.5101 18.0149C14.5101 18.7449 15.1101 19.3449 15.8401 19.3449Z" fill="#8C5543"/>
        </g>
      </g>
      <text id="ITEM_3_HEAD" x="52.0" y="-85.0" text-anchor="middle" font-weight="bold" font-size="28" fill="var(--primary-text)" data-bg-id="ITEM_3_BG" style="font-size: 30px; font-family: Inter, Segoe UI, Kalam, Roboto, Helvetica, Arial, sans-serif; font-weight: 700; letter-spacing:-0.4px;" data-final-font-size="30">
        <tspan x="52.0" dy="37.75px">Scale Significance</tspan>
      </text>
      <rect id="ITEM_3_HEAD_FRAME" x="-220" y="-85" width="544" height="50" fill="none"/>
      <text id="ITEM_3_BODY" x="52.0" y="-14.0" text-anchor="middle" font-size="22" fill="var(--primary-text)" opacity="0.88" data-bg-id="ITEM_3_BG" data-max-lines="5" style="font-size: 26px; font-family: Inter, Segoe UI, Kalam, Roboto, Helvetica, Arial, sans-serif; font-weight: 400;" data-final-font-size="26">
        <tspan x="52.0" dy="38.10px">Billion-dollar programs significantly alter</tspan>
        <tspan x="52.0" dy="29.90px">apparent priority distribution</tspan>
      </text>
      <rect id="ITEM_3_BODY_FRAME" x="-220" y="-14" width="544" height="124" fill="none"/>
    </g>
    <g transform="translate(1440.0, 400.0)">
      <rect id="ITEM_4_ACCENT_BG" x="-400" y="-110" width="800" height="245" rx="24" fill="var(--accent-4)" fill-opacity="0.15"/>
      <rect id="ITEM_4_BG" x="-400" y="-110" width="800" height="245" rx="18" fill="var(--panel)" stroke="var(--accent-4)" filter="url(#svgf5ac6e73-shadow)" stroke-width="3"/>
      <rect x="-388" y="-98" width="776" height="221" rx="16" fill="url(#svgf5ac6e73-myth-card-sheen)" opacity="0.92"/>
      <circle id="ITEM_4_PAD" cx="330" cy="-40" r="46" fill="var(--icon-pad-bg)" stroke="var(--background)" stroke-width="2" stroke-opacity="0.65" opacity="0.94"/>
      <circle id="ITEM_4_PAD_INNER" cx="330" cy="-40" r="35.88" fill="var(--accent-4)" fill-opacity="0.22"/>
      <circle cx="330" cy="-40" r="34" fill="none" stroke="var(--accent-4)" stroke-width="3" stroke-dasharray="6 4"/>
      <g id="ITEM_4_ICON" transform="translate(302, -68)" data-icon-size="56" stroke-dasharray="6 4">
        <g transform="translate(-12.286315789473687,-13.545263157894741) scale(2.0143157894736845)">
          <path d="m16.726,6.632L2.811,30.734c-1.455,2.52.364,5.67,3.274,5.67h27.831c2.91,0,4.728-3.15,3.274-5.67L23.274,6.632c-1.455-2.52-5.092-2.52-6.547,0Z" fill="#ffcd00"/>
          <path d="m20,27.547c-1.044,0-1.89.846-1.89,1.89s.846,1.89,1.89,1.89,1.89-.846,1.89-1.89-.846-1.89-1.89-1.89h0Z" fill="#303d4c"/>
          <path d="m20,25.078c-.884,0-1.6-.716-1.6-1.6v-7.875c0-.884.716-1.6,1.6-1.6s1.6.716,1.6,1.6v7.875c0,.884-.716,1.6-1.6,1.6Z" fill="#303d4c"/>
        </g>
      </g>
      <text id="ITEM_4_HEAD" x="-52.0" y="-85.0" text-anchor="middle" font-weight="bold" font-size="28" fill="var(--accent-4)" data-bg-id="ITEM_4_BG" style="font-size: 30px; font-family: Inter, Segoe UI, Kalam, Roboto, Helvetica, Arial, sans-serif; font-weight: 700; letter-spacing:-0.4px;" data-final-font-size="30">
        <tspan x="-52.0" dy="37.75px">Comparison Caution</tspan>
      </text>
      <rect id="ITEM_4_HEAD_FRAME" x="-324" y="-85" width="544" height="50" fill="none"/>
      <text id="ITEM_4_BODY" x="-52.0" y="-14.0" text-anchor="middle" font-size="22" fill="var(--primary-text)" opacity="0.88" data-bg-id="ITEM_4_BG" data-max-lines="5" style="font-size: 26px; font-family: Inter, Segoe UI, Kalam, Roboto, Helvetica, Arial, sans-serif; font-weight: 400;" data-final-font-size="26">
        <tspan x="-52.0" dy="38.10px">Discrepancies may reflect rules rather</tspan>
        <tspan x="-52.0" dy="29.90px">than strategy shifts</tspan>
      </text>
      <rect id="ITEM_4_BODY_FRAME" x="-324" y="-14" width="544" height="124" fill="none"/>
    </g>
    <!-- Row 3 - cards at y=670 -->
    <g transform="translate(480.0, 670.0)">
      <rect id="ITEM_5_ACCENT_BG" x="-400" y="-110" width="800" height="245" rx="24" fill="var(--accent-5)" fill-opacity="0.15"/>
      <rect id="ITEM_5_BG" x="-400" y="-110" width="800" height="245" rx="18" fill="var(--panel)" stroke="var(--accent-5)" filter="url(#svgf5ac6e73-shadow)" stroke-width="3"/>
      <rect x="-388" y="-98" width="776" height="221" rx="16" fill="url(#svgf5ac6e73-myth-card-sheen)" opacity="0.92"/>
      <circle id="ITEM_5_PAD" cx="-330" cy="-40" r="46" fill="var(--icon-pad-bg)" stroke="var(--background)" stroke-width="2" stroke-opacity="0.65" opacity="0.94"/>
      <circle id="ITEM_5_PAD_INNER" cx="-330" cy="-40" r="35.88" fill="var(--accent-5)" fill-opacity="0.22"/>
      <circle cx="-330" cy="-40" r="34" fill="none" stroke="var(--accent-5)" stroke-width="3" stroke-dasharray="6 4"/>
      <g id="ITEM_5_ICON" transform="translate(-358, -68)" data-icon-size="56" stroke-dasharray="6 4">
        <g transform="translate(-10.920677966101698,-9.40033898305085) scale(3.243389830508475)" vector-effect="non-scaling-stroke" stroke-width="2.38" stroke-linecap="round" stroke-linejoin="round" stroke-opacity="1.0">
          <path d="M18 21V10a1 1 0 0 0-1-1H7a1 1 0 0 0-1 1v11" vector-effect="non-scaling-stroke" fill="none" stroke="#f1f5f9"/>
          <path d="M22 19a2 2 0 0 1-2 2H4a2 2 0 0 1-2-2V8a2 2 0 0 1 1.132-1.803l7.95-3.974a2 2 0 0 1 1.837 0l7.948 3.974A2 2 0 0 1 22 8z" vector-effect="non-scaling-stroke" fill="none" stroke="#f1f5f9"/>
          <path d="M6 13h12" vector-effect="non-scaling-stroke" fill="none" stroke="#f1f5f9"/>
          <path d="M6 17h12" vector-effect="non-scaling-stroke" fill="none" stroke="#f1f5f9"/>
        </g>
      </g>
      <text id="ITEM_5_HEAD" x="52.0" y="-85.0" text-anchor="middle" font-weight="bold" font-size="28" fill="var(--primary-text)" data-bg-id="ITEM_5_BG" style="font-size: 30px; font-family: Inter, Segoe UI, Kalam, Roboto, Helvetica, Arial, sans-serif; font-weight: 700; letter-spacing:-0.4px;" data-final-font-size="30">
        <tspan x="52.0" dy="37.75px">Inconsistent Selection</tspan>
      </text>
      <rect id="ITEM_5_HEAD_FRAME" x="-220" y="-85" width="544" height="50" fill="none"/>
      <text id="ITEM_5_BODY" x="52.0" y="-14.0" text-anchor="middle" font-size="22" fill="var(--primary-text)" opacity="0.88" data-bg-id="ITEM_5_BG" data-max-lines="5" style="font-size: 26px; font-family: Inter, Segoe UI, Kalam, Roboto, Helvetica, Arial, sans-serif; font-weight: 400;" data-final-font-size="26">
        <tspan x="52.0" dy="38.10px">Variations in facilities and research</tspan>
        <tspan x="52.0" dy="29.90px">projects across years</tspan>
      </text>
      <rect id="ITEM_5_BODY_FRAME" x="-220" y="-14" width="544" height="124" fill="none"/>
    </g>
  </g>
</svg>
