<?xml version='1.0' encoding='utf-8'?>
<svg xmlns="http://www.w3.org/2000/svg" width="1920" height="1080" viewBox="0 0 1920 1080" data-theme="dark">
  <style>
        @font-face {
            font-family: 'Inter';
            src: url('assets/fonts/Inter-Regular.ttf') format('truetype');
            font-weight: 400;
            font-style: normal;
            font-display: swap;
        }
        @font-face {
            font-family: 'Inter';
            src: url('assets/fonts/Inter-Bold.ttf') format('truetype');
            font-weight: 600;
            font-style: normal;
            font-display: swap;
        }
        @font-face {
            font-family: 'Inter';
            src: url('assets/fonts/Inter-Bold.ttf') format('truetype');
            font-weight: 800;
            font-style: normal;
            font-display: swap;
        }
        
:root {
    --background: #0f172a;
    --panel: #1e293b;
    --primary-text: #f1f5f9;
    --muted-text: #94a3b8;
    --inverse-text: #0f172a;
    --border: #334155;
    --shadow-color: #000000;
    --icon-pad-bg: #1e293b;
    --art-glow: #7dd3fc;
    --art-glow-opacity: 0.18;
    --art-sheen: #ffffff;
    --art-sheen-opacity: 0.18;
    --art-shadow: #000000;
    --art-shadow-opacity: 0.28;
    --art-muted-line: #64748b;
    --art-panel-tint: #1e293b;
    --font-family: 'Inter', 'Segoe UI', 'Kalam', Roboto, Helvetica, Arial, sans-serif;
    --radius-xl: 16px;
    --font-family-headline: 'Inter', 'Segoe UI', 'Kalam', Roboto, Helvetica, Arial, sans-serif;
    --font-family-body: 'Inter', 'Segoe UI', 'Kalam', Roboto, Helvetica, Arial, sans-serif;
    --font-heading: 'Inter', 'Segoe UI', 'Kalam', Roboto, Helvetica, Arial, sans-serif;
    --font-body: 'Inter', 'Segoe UI', 'Kalam', Roboto, Helvetica, Arial, sans-serif;
    --font-size-h1: 56px;
    --font-size-h2: 40px;
    --font-size-h3: 28px;
    --font-size-body: 24px;
    --font-size-caption: 18px;
    --secondary-text: var(--muted-text);
    --panel-border: var(--border);
    --font-weight-normal: 400;
    --font-weight-medium: 500;
    --font-weight-semibold: 600;
    --font-weight-bold: 700;
    --spacing-gutter-pct: 0.07;
    --spacing-top-pct: 0.15;
    --spacing-bottom-pct: 0.07;
    --spacing-title-y-pct: 0.055;
    --accent-1: #22d3ee;
    --accent-2: #38bdf8;
    --accent-3: #60a5fa;
    --accent-4: #818cf8;
    --accent-5: #a78bfa;
    --accent-6: #2dd4bf;
}
:root[data-theme="dark"] {
    --background: #0f172a;
    --panel: #1e293b;
    --primary-text: #f1f5f9;
    --muted-text: #94a3b8;
    --inverse-text: #0f172a;
    --border: #334155;
    --shadow-color: #000000;
    --icon-pad-bg: #1e293b;
    --art-glow: #7dd3fc;
    --art-glow-opacity: 0.18;
    --art-sheen: #ffffff;
    --art-sheen-opacity: 0.18;
    --art-shadow: #000000;
    --art-shadow-opacity: 0.28;
    --art-muted-line: #64748b;
    --art-panel-tint: #1e293b;
    --accent-1: #22d3ee;
    --accent-2: #38bdf8;
    --accent-3: #60a5fa;
    --accent-4: #818cf8;
    --accent-5: #a78bfa;
    --accent-6: #2dd4bf;
}
:root[data-theme="light"] {
    --background: #f8fafc;
    --panel: #ffffff;
    --primary-text: #0f172a;
    --muted-text: #64748b;
    --inverse-text: #ffffff;
    --border: #e2e8f0;
    --shadow-color: #000000;
    --icon-pad-bg: #1e293b;
    --art-glow: #0891b2;
    --art-glow-opacity: 0.10;
    --art-sheen: #ffffff;
    --art-sheen-opacity: 0.34;
    --art-shadow: #0f172a;
    --art-shadow-opacity: 0.14;
    --art-muted-line: #94a3b8;
    --art-panel-tint: #f1f5f9;
    --accent-1: #0891b2;
    --accent-2: #0284c7;
    --accent-3: #2563eb;
    --accent-4: #4f46e5;
    --accent-5: #7c3aed;
    --accent-6: #0d9488;
}</style>
  <rect x="0" y="0" width="1.92E+3" height="1.08E+3" fill="#252a34" stroke="none" id="programmatic_background"/>
  <line id="HEADER_DECOR" x1="960.0" x2="1080.0" y1="95.0" y2="95.0" stroke="var(--accent-1)" stroke-width="6" stroke-linecap="round"/>
  <defs>
    <pattern id="svgc2a21f7a-napkin-hatch" patternUnits="userSpaceOnUse" width="12" height="12">
      <path d="M -3 12 L 12 -3 M 0 15 L 15 0" fill="none" stroke="var(--primary-text)" stroke-width="1" stroke-opacity="0.05"/>
    </pattern>
    <radialGradient id="svgc2a21f7a-universal-edge-vignette" cx="50%" cy="50%" r="72%">
      <stop offset="0%" stop-color="var(--background)" stop-opacity="0"/>
      <stop offset="72%" stop-color="var(--background)" stop-opacity="0.12"/>
      <stop offset="100%" stop-color="var(--primary-text)" stop-opacity="0.08"/>
    </radialGradient>
    <linearGradient id="svgc2a21f7a-universal-surface-sheen" x1="0%" y1="0%" x2="100%" y2="100%">
      <stop offset="0%" stop-color="var(--art-sheen)" stop-opacity="var(--art-sheen-opacity)"/>
      <stop offset="46%" stop-color="var(--art-sheen)" stop-opacity="0.035"/>
      <stop offset="100%" stop-color="var(--art-panel-tint)" stop-opacity="0.14"/>
    </linearGradient>
    <radialGradient id="svgc2a21f7a-universal-icon-aura" cx="50%" cy="42%" r="64%">
      <stop offset="0%" stop-color="var(--art-glow)" stop-opacity="var(--art-glow-opacity)"/>
      <stop offset="100%" stop-color="var(--background)" stop-opacity="0"/>
    </radialGradient>
    <filter id="svgc2a21f7a-text-glow" x="-20%" y="-20%" width="140%" height="140%">
      <feDropShadow dx="0" dy="0" stdDeviation="2" flood-color="#000000" flood-opacity="0.4"/>
    </filter>
    <filter id="svgc2a21f7a-shadow" x="-30%" y="-30%" width="160%" height="160%">
      <feDropShadow dx="0" dy="2" stdDeviation="3" flood-color="#000000" flood-opacity="0.08"/>
      <feDropShadow dx="0" dy="6" stdDeviation="10" flood-color="#000000" flood-opacity="0.12"/>
    </filter>
    <marker id="svgc2a21f7a-arrowhead" markerWidth="10" markerHeight="7" refX="9" refY="3.5" orient="auto" markerUnits="strokeWidth">
      <polygon points="0 0, 10 3.5, 0 7" fill="var(--muted-text)" opacity="0.6"/>
    </marker>
  </defs>
  <rect width="100%" height="100%" fill="var(--background)" id="CANVAS_BG"/>
  <rect width="100%" height="100%" fill="url(#svgc2a21f7a-napkin-hatch)"/>
  <rect id="UNIVERSAL_EDGE_VIGNETTE" width="100%" height="100%" fill="url(#svgc2a21f7a-universal-edge-vignette)" opacity="0.62"/>
  <text id="TITLE" x="960.0" y="59" font-size="56" font-weight="800" fill="#f1f5f9" style="font-size: 60px; font-family: Inter, Segoe UI, Kalam, Roboto, Helvetica, Arial, sans-serif; font-weight: 700; letter-spacing:-1.2px;" text-anchor="middle" data-final-font-size="60">
    <tspan x="960.0" dy="68.00px">SAP Markings and Hidden Architecture</tspan>
  </text>
  <rect id="TITLE_FRAME" x="140" y="40" width="1640" height="80" fill="none"/>
  <g id="DIAGRAM_MAIN">
    <!-- Connectors from center -->
    <path d="M960,480 L560,260" stroke="var(--muted-text)" stroke-width="4" stroke-dasharray="8 8" opacity="0.4"/>
    <path d="M960,480 L1360,260" stroke="var(--muted-text)" stroke-width="4" stroke-dasharray="8 8" opacity="0.4"/>
    <path d="M960,480 L560,700" stroke="var(--muted-text)" stroke-width="4" stroke-dasharray="8 8" opacity="0.4"/>
    <path d="M960,480 L1360,700" stroke="var(--muted-text)" stroke-width="4" stroke-dasharray="8 8" opacity="0.4"/>
    <!-- Central Hub -->
    <g transform="translate(960, 480)">
      <circle r="110" fill="var(--panel)" stroke="var(--primary-text)" stroke-width="6"/>
      <circle r="130" fill="none" stroke="var(--accent-1)" stroke-width="2" opacity="0.3"/>
      <circle id="ITEM_1_PAD" cx="0" cy="0" r="65" fill="var(--icon-pad-bg)" stroke="var(--primary-text)" opacity="0.9" fill-opacity="0.9" stroke-width="2"/>
      <circle id="ITEM_1_PAD_INNER" cx="0" cy="0" r="50.70" fill="var(--accent-5)" fill-opacity="0.22"/>
      <circle cx="0" cy="0" r="52" fill="none" stroke="var(--accent-1)" stroke-width="3" stroke-dasharray="6 4"/>
      <g id="ITEM_1_ICON" transform="translate(-40, -40)" data-icon-size="80">
        <g transform="translate(-15.944827586206904,-15.9448275862069) scale(4.662068965517242)" vector-effect="non-scaling-stroke" stroke-width="2.67" stroke-linecap="round" stroke-linejoin="round" stroke-opacity="1.0">
          <path d="M4 21.4V2.6C4 2.26863 4.26863 2 4.6 2H16.2515C16.4106 2 16.5632 2.06321 16.6757 2.17574L19.8243 5.32426C19.9368 5.43679 20 5.5894 20 5.74853V21.4C20 21.7314 19.7314 22 19.4 22H4.6C4.26863 22 4 21.7314 4 21.4Z" stroke="#f1f5f9" vector-effect="non-scaling-stroke" fill="none"/>
          <path d="M8 10L16 10" stroke="#f1f5f9" vector-effect="non-scaling-stroke" fill="none"/>
          <path d="M8 18L16 18" stroke="#f1f5f9" vector-effect="non-scaling-stroke" fill="none"/>
          <path d="M8 14L12 14" stroke="#f1f5f9" vector-effect="non-scaling-stroke" fill="none"/>
          <path d="M16 2V5.4C16 5.73137 16.2686 6 16.6 6H20" stroke="#f1f5f9" vector-effect="non-scaling-stroke" fill="none"/>
        </g>
      </g>
      <rect id="ITEM_1_TEXT_PILL" x="-200" y="140" width="400" height="90" rx="8" fill="var(--background)" opacity="0.85" stroke="none"/>
      <text id="ITEM_1_HEAD" text-anchor="middle" font-weight="bold" font-size="28" fill="var(--accent-5)" x="0.0" y="145.0" fill-opacity="1.0" stroke="none" style="font-size: 30px; font-family: Inter, Segoe UI, Kalam, Roboto, Helvetica, Arial, sans-serif; font-weight: 700; letter-spacing:-0.4px;" data-final-font-size="30">
        <tspan x="0.0" dy="44.25px">Visible Banner</tspan>
      </text>
      <rect id="ITEM_1_HEAD_FRAME" x="-190" y="145" width="380" height="60" fill="none"/>
    </g>
    <!-- Node A - Top Left -->
    <g transform="translate(560, 260)">
      <circle id="ITEM_2_NODE" r="65" fill="var(--icon-pad-bg)" stroke="var(--accent-2)" stroke-width="4"/>
      <circle cx="0" cy="0" r="52" fill="none" stroke="var(--accent-2)" stroke-width="3" stroke-dasharray="6 4"/>
      <g id="ITEM_2_ICON" transform="translate(-30, -30)" data-icon-size="60">
        <g transform="translate(-27.942857142857143,-27.942857142857147) scale(3.6214285714285714)">
          <path d="M8 4C8 2.89543 8.89543 2 10 2H22C23.1046 2 24 2.89543 24 4V28C24 29.1046 23.1046 30 22 30H10C8.89543 30 8 29.1046 8 28V4Z" fill="#E19747"/>
          <path d="M10 5C10 4.44772 10.4477 4 11 4H21C21.5523 4 22 4.44772 22 5V12C22 12.5523 21.5523 13 21 13H11C10.4477 13 10 12.5523 10 12V5Z" fill="#D3883E"/>
          <path d="M10 17C10 16.4477 10.4477 16 11 16H21C21.5523 16 22 16.4477 22 17V20C22 20.5523 21.5523 21 21 21H11C10.4477 21 10 20.5523 10 20V17Z" fill="#D3883E"/>
          <path d="M11 23C10.4477 23 10 23.4477 10 24V27C10 27.5523 10.4477 28 11 28H21C21.5523 28 22 27.5523 22 27V24C22 23.4477 21.5523 23 21 23H11Z" fill="#D3883E"/>
          <path d="M23.25 14.5C23.25 15.0523 22.8023 15.5 22.25 15.5C21.6977 15.5 21.25 15.0523 21.25 14.5C21.25 13.9477 21.6977 13.5 22.25 13.5C22.8023 13.5 23.25 13.9477 23.25 14.5Z" fill="#F9C23C"/>
        </g>
      </g>
      <g transform="translate(0, 90)">
        <rect id="ITEM_2_BG" x="-190" y="-15" width="380" height="185" rx="10" fill="var(--background)" opacity="0.85" stroke="none"/>
        <text id="ITEM_2_HEAD" text-anchor="middle" font-weight="bold" font-size="26" fill="var(--accent-6)" x="0.0" y="0.0" data-bg-id="ITEM_2_BG" fill-opacity="1.0" stroke="none" style="font-size: 30px; font-family: Inter, Segoe UI, Kalam, Roboto, Helvetica, Arial, sans-serif; font-weight: 700; letter-spacing:-0.4px;" data-final-font-size="30">
          <tspan x="0.0" dy="44.25px">Handling Channels</tspan>
        </text>
        <rect id="ITEM_2_HEAD_FRAME" x="-190" y="0" width="380" height="60" fill="none"/>
        <text id="ITEM_2_BODY" text-anchor="middle" font-size="18" fill="var(--primary-text)" x="0.0" y="50.0" data-bg-id="ITEM_2_BG" style="font-size: 26px; font-family: Inter, Segoe UI, Kalam, Roboto, Helvetica, Arial, sans-serif; font-weight: 400;" data-final-font-size="26">
          <tspan x="0.0" dy="38.12px">Internal routing instructions for</tspan>
          <tspan x="0.0" dy="29.90px">authorized security personnel only</tspan>
        </text>
        <rect id="ITEM_2_BODY_FRAME" x="-190" y="50" width="380" height="120" fill="none"/>
      </g>
    </g>
    <!-- Node B - Top Right -->
    <g transform="translate(1360, 260)">
      <circle id="ITEM_3_NODE" r="65" fill="var(--icon-pad-bg)" stroke="var(--accent-3)" stroke-width="4"/>
      <circle cx="0" cy="0" r="52" fill="none" stroke="var(--accent-3)" stroke-width="3" stroke-dasharray="6 4"/>
      <g id="ITEM_3_ICON" transform="translate(-30, -30)" data-icon-size="60">
        <g transform="translate(-25.944827586206898,-25.944827586206898) scale(0.2185344827586207)" vector-effect="non-scaling-stroke" fill="var(--primary-text)" fill-opacity="1.0" stroke="none">
          <path fill="var(--primary-text)" d="M41 25v78h430V25zm254 23h18v32h-18zm121 0a16 16 0 0 1 16 16a16 16 0 0 1-16 16a16 16 0 0 1-16-16a16 16 0 0 1 16-16M64 55h48v18H64zm80 0h48v18h-48zm80 0h48v18h-48zm-119 66v30h302v-30zm-64 48v78h430v-78zm254 23h18v32h-18zm121 0a16 16 0 0 1 16 16a16 16 0 0 1-16 16a16 16 0 0 1-16-16a16 16 0 0 1 16-16m-352 7h48v18H64zm80 0h48v18h-48zm80 0h48v18h-48zm-119 66v30h302v-30zm-64 48v78h430v-78zm254 23h18v32h-18zm121 0a16 16 0 0 1 16 16a16 16 0 0 1-16 16a16 16 0 0 1-16-16a16 16 0 0 1 16-16m-352 7h48v18H64zm80 0h48v18h-48zm80 0h48v18h-48zm13 66v30h38v-30zM25 457v30h130.2l20-30zm171.8 0l-20 30h158.4l-20-30zm140 0l20 30H487v-30z" vector-effect="non-scaling-stroke" stroke="none"/>
        </g>
      </g>
      <g transform="translate(0, 90)">
        <rect id="ITEM_3_BG" x="-190" y="-15" width="380" height="185" rx="10" fill="var(--background)" opacity="0.85" stroke="none"/>
        <text id="ITEM_3_HEAD" text-anchor="middle" font-weight="bold" font-size="26" fill="var(--accent-1)" x="0.0" y="0.0" data-bg-id="ITEM_3_BG" fill-opacity="1.0" stroke="none" style="font-size: 30px; font-family: Inter, Segoe UI, Kalam, Roboto, Helvetica, Arial, sans-serif; font-weight: 700; letter-spacing:-0.4px;" data-final-font-size="30">
          <tspan x="0.0" dy="44.25px">Access Architecture</tspan>
        </text>
        <rect id="ITEM_3_HEAD_FRAME" x="-190" y="0" width="380" height="60" fill="none"/>
        <text id="ITEM_3_BODY" text-anchor="middle" font-size="18" fill="var(--primary-text)" x="0.0" y="50.0" data-bg-id="ITEM_3_BG" style="font-size: 26px; font-family: Inter, Segoe UI, Kalam, Roboto, Helvetica, Arial, sans-serif; font-weight: 400;" data-final-font-size="26">
          <tspan x="0.0" dy="32.14px">Systems like BYEMAN mapping</tspan>
          <tspan x="0.0" dy="29.90px">communities into</tspan>
          <tspan x="0.0" dy="29.90px">controlled channels</tspan>
        </text>
        <rect id="ITEM_3_BODY_FRAME" x="-190" y="50" width="380" height="120" fill="none"/>
      </g>
    </g>
    <!-- Node C - Bottom Left - text BELOW icon -->
    <g transform="translate(560, 700)">
      <circle id="ITEM_4_NODE" r="65" fill="var(--icon-pad-bg)" stroke="var(--accent-4)" stroke-width="4"/>
      <circle cx="0" cy="0" r="52" fill="none" stroke="var(--accent-4)" stroke-width="3" stroke-dasharray="6 4"/>
      <g id="ITEM_4_ICON" transform="translate(-30, -30)" data-icon-size="60">
        <g transform="translate(-20.700000000000003,-20.7) scale(7.242857142857143)" vector-effect="non-scaling-stroke" stroke-width="2.43" stroke-linecap="round" stroke-linejoin="round" stroke-opacity="1.0">
          <path id="Vector" fill="none" d="M1.5 5h11v7c0 0.2652 -0.1054 0.5196 -0.2929 0.7071S11.7652 13 11.5 13h-9c-0.26522 0 -0.51957 -0.1054 -0.70711 -0.2929C1.60536 12.5196 1.5 12.2652 1.5 12V5Z" vector-effect="non-scaling-stroke" stroke="var(--primary-text)"/>
          <path id="Vector_2" fill="none" d="M13.5 4V2c0 -0.55228 -0.4477 -1 -1 -1l-11 0c-0.552285 0 -1 0.44772 -1 1v2c0 0.55228 0.447715 1 1 1l11 0c0.5523 0 1 -0.44772 1 -1Z" vector-effect="non-scaling-stroke" stroke="var(--primary-text)"/>
          <path id="Vector_3" stroke="var(--primary-text)" d="M1.5 5h11v7c0 0.2652 -0.1054 0.5196 -0.2929 0.7071S11.7652 13 11.5 13h-9c-0.26522 0 -0.51957 -0.1054 -0.70711 -0.2929C1.60536 12.5196 1.5 12.2652 1.5 12V5v0Z" vector-effect="non-scaling-stroke" fill="none"/>
          <path id="Vector_4" stroke="var(--primary-text)" d="M13.5 4V2c0 -0.55228 -0.4477 -1 -1 -1l-11 0c-0.552285 0 -1 0.44772 -1 1v2c0 0.55228 0.447715 1 1 1l11 0c0.5523 0 1 -0.44772 1 -1Z" vector-effect="non-scaling-stroke" fill="none"/>
          <path id="Vector_5" stroke="var(--primary-text)" d="M5.5 8h3" vector-effect="non-scaling-stroke" fill="none"/>
        </g>
      </g>
      <g transform="translate(0, 90)">
        <rect id="ITEM_4_BG" x="-190" y="-15" width="380" height="185" rx="10" fill="var(--background)" opacity="0.85" stroke="none"/>
        <text id="ITEM_4_HEAD" text-anchor="middle" font-weight="bold" font-size="26" fill="var(--accent-2)" x="0.0" y="0.0" data-bg-id="ITEM_4_BG" fill-opacity="1.0" stroke="none" style="font-size: 30px; font-family: Inter, Segoe UI, Kalam, Roboto, Helvetica, Arial, sans-serif; font-weight: 700; letter-spacing:-0.4px;" data-final-font-size="30">
          <tspan x="0.0" dy="44.25px">Legacy Compartments</tspan>
        </text>
        <rect id="ITEM_4_HEAD_FRAME" x="-190" y="0" width="380" height="60" fill="none"/>
        <text id="ITEM_4_BODY" text-anchor="middle" font-size="18" fill="var(--primary-text)" x="0.0" y="50.0" data-bg-id="ITEM_4_BG" style="font-size: 26px; font-family: Inter, Segoe UI, Kalam, Roboto, Helvetica, Arial, sans-serif; font-weight: 400;" data-final-font-size="26">
          <tspan x="0.0" dy="32.14px">Retired systems like TALENT-</tspan>
          <tspan x="0.0" dy="29.90px">KEYHOLE persisting in</tspan>
          <tspan x="0.0" dy="29.90px">historical archives</tspan>
        </text>
        <rect id="ITEM_4_BODY_FRAME" x="-190" y="50" width="380" height="120" fill="none"/>
      </g>
    </g>
    <!-- Node D - Bottom Right - text BELOW icon -->
    <g transform="translate(1360, 700)">
      <circle id="ITEM_5_NODE" r="65" fill="var(--icon-pad-bg)" stroke="var(--accent-5)" stroke-width="4"/>
      <circle cx="0" cy="0" r="52" fill="none" stroke="var(--accent-5)" stroke-width="3" stroke-dasharray="6 4"/>
      <g id="ITEM_5_ICON" transform="translate(-30, -30)" data-icon-size="60">
        <g transform="translate(-26.13214285714286,-27.490178571428572) scale(3.6214285714285714)">
          <path d="M14.3675 5.87431L10.6615 3.30015C10.2652 3.02489 9.72534 3.12861 9.44275 3.51981L1.77125 14.5646C1.496 14.9609 1.59462 15.5081 1.99091 15.7833L5.69698 18.3575C6.09327 18.6328 6.64046 18.5341 6.91571 18.1378L14.5872 7.09304C14.8625 6.69675 14.7638 6.14956 14.3675 5.87431ZM16.6809 25.9761L20.3869 28.5502C20.7832 28.8255 21.3253 28.7342 21.6006 28.3379L29.272 17.2931C29.5473 16.8968 29.4487 16.3496 29.0524 16.0744L25.3463 13.5002C24.95 13.225 24.4028 13.3236 24.1276 13.7199L16.4612 24.7573C16.1859 25.1536 16.2846 25.7008 16.6809 25.9761Z" fill="#635994"/>
          <path d="M21.4869 12.9951L19.3688 10.6316L16.2031 9.32501L15.1836 10.7928L17.5195 13.2275L20.4675 14.4628L21.4869 12.9951Z" fill="#998EA4"/>
          <path d="M12.4766 13.2646L11.0088 12.2451L10.4991 12.979L11.9668 13.9985L12.4766 13.2646ZM19.0888 17.8571L20.5566 18.8765L20.0468 19.6104L18.5791 18.5909L19.0888 17.8571ZM13.5848 19.4848L12.8509 18.9751L11.3217 21.1767L12.0556 21.6865L13.5848 19.4848ZM9.29531 24.1097L10.0365 24.6246L8.50732 26.8262L7.76611 26.3114L9.29531 24.1097Z" fill="#1C1C1C"/>
          <path d="M12.5996 6.82217L10.3979 5.29297L8.86874 7.49459L11.0704 9.02379L12.5996 6.82217ZM7.84939 8.96277L10.051 10.492L8.52181 12.6936L6.32019 11.1644L7.84939 8.96277ZM7.50231 14.1613L5.30069 12.6321L3.77148 14.8337L5.97311 16.3629L7.50231 14.1613ZM25.0828 15.4929L27.2844 17.0221L25.7552 19.2237L23.5536 17.6945L25.0828 15.4929ZM22.5342 19.1624L24.7358 20.6916L23.2066 22.8932L21.005 21.364L22.5342 19.1624ZM22.1872 24.3606L19.9855 22.8314L18.4563 25.033L20.658 26.5622L22.1872 24.3606Z" fill="#BCA4EB"/>
          <path d="M16.1371 9.27938L21.5458 13.0361C21.876 13.2655 22.3311 13.1899 22.5531 12.8546L23.2514 11.8492C23.4808 11.5189 23.4001 11.0712 23.0699 10.8418L17.6612 7.0851C17.331 6.85572 16.8833 6.9364 16.6539 7.26665L15.9556 8.27206C15.7262 8.6023 15.8069 9.05 16.1371 9.27938ZM8.98669 27.7029C8.56441 28.3108 7.72923 28.4613 7.12127 28.0391C6.51331 27.6168 6.36279 26.7816 6.78506 26.1737C7.20734 25.5657 8.04251 25.4152 8.65048 25.8374C9.25844 26.2597 9.40896 27.0949 8.98669 27.7029ZM12.3559 26.2356L6.9766 22.4993C6.40418 22.1017 6.3806 21.2585 6.9266 20.8327C8.43104 19.6691 10.5674 19.5537 12.2112 20.6955C13.8551 21.8373 14.4928 23.8795 13.9278 25.6955C13.7216 26.3683 12.9283 26.6332 12.3559 26.2356ZM10.5301 17.3519L15.9387 21.1087C16.269 21.3381 16.724 21.2625 16.946 20.9271L20.7028 15.5185C20.9322 15.1882 20.8515 14.7405 20.5212 14.5111L15.1126 10.7544C14.7823 10.525 14.3346 10.6057 14.1053 10.936L10.3485 16.3446C10.1191 16.6749 10.1998 17.1226 10.5301 17.3519Z" fill="#B4ACBC"/>
        </g>
      </g>
      <g transform="translate(0, 90)">
        <rect id="ITEM_5_BG" x="-190" y="-15" width="380" height="185" rx="10" fill="var(--background)" opacity="0.85" stroke="none"/>
        <text id="ITEM_5_HEAD" text-anchor="middle" font-weight="bold" font-size="26" fill="var(--accent-3)" x="0.0" y="0.0" data-bg-id="ITEM_5_BG" fill-opacity="1.0" stroke="none" style="font-size: 30px; font-family: Inter, Segoe UI, Kalam, Roboto, Helvetica, Arial, sans-serif; font-weight: 700; letter-spacing:-0.4px;" data-final-font-size="30">
          <tspan x="0.0" dy="44.25px">Operational Purpose</tspan>
        </text>
        <rect id="ITEM_5_HEAD_FRAME" x="-190" y="0" width="380" height="60" fill="none"/>
        <text id="ITEM_5_BODY" text-anchor="middle" font-size="18" fill="var(--primary-text)" x="0.0" y="50.0" data-bg-id="ITEM_5_BG" style="font-size: 26px; font-family: Inter, Segoe UI, Kalam, Roboto, Helvetica, Arial, sans-serif; font-weight: 400;" data-final-font-size="26">
          <tspan x="0.0" dy="32.14px">The underlying mission hidden</tspan>
          <tspan x="0.0" dy="29.90px">behind non-descriptive naming</tspan>
          <tspan x="0.0" dy="29.90px">conventions</tspan>
        </text>
        <rect id="ITEM_5_BODY_FRAME" x="-190" y="50" width="380" height="120" fill="none"/>
      </g>
    </g>
  </g>
</svg>
